<svg id="ac1d01d6-5892-4efe-a8d6-a428cc865e88" data-name="Layer 1" xmlns="http://www.w3.org/2000/svg" xmlns:xlink="http://www.w3.org/1999/xlink" viewBox="0 0 50 50">
  <title>instagram</title>
  <path d="M25,0c-6.79,0-7.64,0-10.31.15A18.16,18.16,0,0,0,8.63,1.31,12.2,12.2,0,0,0,4.2,4.2,12.29,12.29,0,0,0,1.31,8.62,18.28,18.28,0,0,0,.15,14.69C0,17.36,0,18.21,0,25s0,7.64.15,10.31a18.42,18.42,0,0,0,1.16,6.06A12.2,12.2,0,0,0,4.2,45.8a12.07,12.07,0,0,0,4.42,2.89,18.28,18.28,0,0,0,6.07,1.16C17.36,50,18.21,50,25,50s7.64,0,10.3-.15a18.29,18.29,0,0,0,6.08-1.16A12.16,12.16,0,0,0,45.8,45.8a12.37,12.37,0,0,0,2.89-4.42,18.81,18.81,0,0,0,1.16-6.07C50,32.64,50,31.79,50,25s0-7.64-.15-10.31a18.68,18.68,0,0,0-1.16-6.06A12.24,12.24,0,0,0,45.8,4.2a12.24,12.24,0,0,0-4.42-2.89A18.4,18.4,0,0,0,35.3.15C32.63,0,31.79,0,25,0ZM22.76,4.51H25c6.68,0,7.47,0,10.1.14a13.83,13.83,0,0,1,4.64.86,7.8,7.8,0,0,1,2.88,1.87,7.89,7.89,0,0,1,1.87,2.87,13.89,13.89,0,0,1,.86,4.64c.12,2.64.14,3.43.14,10.1s0,7.47-.14,10.1a13.83,13.83,0,0,1-.86,4.64,8.28,8.28,0,0,1-4.74,4.75,14,14,0,0,1-4.65.86c-2.63.12-3.42.14-10.1.14s-7.47,0-10.1-.14a13.76,13.76,0,0,1-4.64-.87,8.2,8.2,0,0,1-4.75-4.74,13.83,13.83,0,0,1-.86-4.64c-.12-2.63-.14-3.43-.14-10.1s0-7.46.14-10.1a13.83,13.83,0,0,1,.86-4.64A7.8,7.8,0,0,1,7.38,7.37,7.76,7.76,0,0,1,10.26,5.5a13.83,13.83,0,0,1,4.64-.86c2.3-.1,3.2-.14,7.86-.14ZM38.35,8.66a3,3,0,1,0,3,3A3,3,0,0,0,38.35,8.66ZM25,12.16a12.84,12.84,0,0,0-.31,25.68H25a12.84,12.84,0,0,0,0-25.68Zm0,4.51A8.33,8.33,0,1,1,16.67,25,8.34,8.34,0,0,1,25,16.67Z"/>
</svg>
